<svg xmlns="http://www.w3.org/2000/svg" viewBox="0 0 64 64"><polygon points="32.00,19.03 32.00,19.03 32.00,19.03 32.00,19.03 32.00,19.02 32.00,19.01 32.00,19.00 32.00,18.99 32.00,18.98 32.00,18.96 32.00,18.95 32.00,18.93 32.01,18.91 32.01,18.89 32.01,18.86 32.01,18.84 32.01,18.81 32.02,18.78 32.02,18.75 32.02,18.72 32.03,18.68 32.03,18.65 32.04,18.61 32.04,18.57 32.05,18.53 32.05,18.49 32.06,18.45 32.07,18.40 32.07,18.36 32.08,18.31 32.09,18.26 32.10,18.21 32.11,18.15 32.12,18.10 32.13,18.04 32.15,17.99 32.16,17.93 32.17,17.87 32.19,17.81 32.20,17.74 32.22,17.68 32.23,17.61 32.25,17.55 32.27,17.48 32.29,17.41 32.31,17.34 32.33,17.26 32.35,17.19 32.37,17.12 32.39,17.04 32.42,16.96 32.44,16.88 32.47,16.80 32.49,16.72 32.52,16.64 32.55,16.56 32.58,16.48 32.61,16.39 32.64,16.31 32.68,16.22 32.71,16.13 32.75,16.04 32.78,15.95 32.82,15.86 32.86,15.77 32.90,15.68 32.94,15.59 32.98,15.50 33.02,15.40 33.06,15.31 33.11,15.21 33.16,15.12 33.20,15.02 33.25,14.92 33.30,14.82 33.35,14.73 33.40,14.63 33.46,14.53 33.51,14.43 33.57,14.33 33.63,14.23 33.68,14.13 33.74,14.03 33.80,13.92 33.87,13.82 33.93,13.72 33.99,13.62 34.06,13.52 34.13,13.41 34.19,13.31 34.26,13.21 34.34,13.11 34.41,13.00 34.48,12.90 34.56,12.80 34.63,12.70 34.71,12.59 34.79,12.49 34.87,12.39 34.95,12.29 35.03,12.19 35.12,12.08 35.20,11.98 35.29,11.88 35.38,11.78 35.47,11.68 35.56,11.58 35.65,11.48 35.74,11.38 35.83,11.29 35.93,11.19 36.03,11.09 36.12,10.99 36.22,10.90 36.32,10.80 36.43,10.71 36.53,10.61 36.63,10.52 36.74,10.43 36.85,10.34 36.95,10.25 37.06,10.16 37.17,10.07 37.29,9.98 37.40,9.89 37.51,9.80 37.63,9.72 37.74,9.63 37.86,9.55 37.98,9.47 38.10,9.39 38.22,9.31 38.34,9.23 38.47,9.15 38.59,9.07 38.72,9.00 38.84,8.92 38.97,8.85 39.10,8.78 39.23,8.71 39.36,8.64 39.49,8.57 39.62,8.50 39.76,8.44 39.89,8.37 40.03,8.31 40.16,8.25 40.30,8.19 40.44,8.13 40.58,8.07 40.72,8.02 40.86,7.96 41.00,7.91 41.14,7.86 41.28,7.81 41.43,7.76 41.57,7.72 41.72,7.67 41.86,7.63 42.01,7.59 42.16,7.55 42.31,7.51 42.46,7.48 42.61,7.44 42.76,7.41 42.91,7.38 43.06,7.35 43.21,7.32 43.36,7.30 43.52,7.27 43.67,7.25 43.82,7.23 43.98,7.21 44.13,7.19 44.29,7.18 44.44,7.17 44.60,7.16 44.76,7.15 44.91,7.14 45.07,7.13 45.23,7.13 45.39,7.13 45.54,7.13 45.70,7.13 45.86,7.13 46.02,7.14 46.18,7.14 46.33,7.15 46.49,7.16 46.65,7.18 46.81,7.19 46.97,7.21 47.13,7.23 47.29,7.25 47.45,7.27 47.61,7.29 47.76,7.32 47.92,7.35 48.08,7.38 48.24,7.41 48.40,7.44 48.55,7.48 48.71,7.52 48.87,7.56 49.03,7.60 49.18,7.64 49.34,7.69 49.50,7.73 49.65,7.78 49.81,7.83 49.96,7.88 50.12,7.94 50.27,7.99 50.42,8.05 50.58,8.11 50.73,8.17 50.88,8.23 51.03,8.30 51.18,8.37 51.33,8.43 51.48,8.50 51.63,8.58 51.78,8.65 51.92,8.73 52.07,8.80 52.21,8.88 52.36,8.96 52.50,9.04 52.64,9.13 52.79,9.21 52.93,9.30 53.07,9.39 53.21,9.48 53.34,9.57 53.48,9.66 53.62,9.76 53.75,9.85 53.89,9.95 54.02,10.05 54.15,10.15 54.28,10.26 54.41,10.36 54.54,10.47 54.67,10.57 54.79,10.68 54.92,10.79 55.04,10.90 55.16,11.01 55.28,11.13 55.40,11.24 55.52,11.36 55.64,11.48 55.75,11.60 55.86,11.72 55.98,11.84 56.09,11.96 56.20,12.08 56.31,12.21 56.41,12.34 56.52,12.46 56.62,12.59 56.72,12.72 56.82,12.85 56.92,12.98 57.02,13.12 57.11,13.25 57.21,13.39 57.30,13.52 57.39,13.66 57.48,13.80 57.56,13.94 57.65,14.08 57.73,14.22 57.81,14.36 57.89,14.50 57.97,14.65 58.05,14.79 58.12,14.94 58.20,15.08 58.27,15.23 58.34,15.38 58.40,15.53 58.47,15.68 58.53,15.83 58.59,15.98 58.65,16.13 58.71,16.28 58.77,16.43 58.82,16.58 58.87,16.74 58.92,16.89 58.97,17.05 59.02,17.20 59.06,17.36 59.10,17.52 59.14,17.67 59.18,17.83 59.22,17.99 59.25,18.15 59.28,18.31 59.31,18.46 59.34,18.62 59.37,18.78 59.39,18.94 59.41,19.11 59.43,19.27 59.45,19.43 59.47,19.59 59.48,19.75 59.49,19.91 59.50,20.08 59.51,20.24 59.52,20.40 59.52,20.56 59.52,20.73 59.52,20.89 59.52,21.06 59.51,21.22 59.50,21.38 59.50,21.55 59.48,21.71 59.47,21.88 59.46,22.04 59.44,22.20 59.42,22.37 59.40,22.53 59.38,22.70 59.35,22.86 59.32,23.03 59.29,23.19 59.26,23.35 59.23,23.52 59.19,23.68 59.16,23.85 59.12,24.01 59.07,24.18 59.03,24.34 58.99,24.50 58.94,24.67 58.89,24.83 58.84,25.00 58.78,25.16 58.73,25.32 58.67,25.49 58.61,25.65 58.55,25.81 58.49,25.98 58.42,26.14 58.36,26.30 58.29,26.46 58.22,26.62 58.15,26.79 58.07,26.95 58.00,27.11 57.92,27.27 57.84,27.43 57.76,27.59 57.68,27.75 57.59,27.91 57.50,28.07 57.42,28.23 57.33,28.39 57.24,28.55 57.14,28.71 57.05,28.87 56.95,29.03 56.85,29.18 56.75,29.34 56.65,29.50 56.55,29.66 56.45,29.81 56.34,29.97 56.23,30.13 56.12,30.28 56.01,30.44 55.90,30.59 55.79,30.75 55.67,30.90 55.56,31.06 55.44,31.21 55.32,31.36 55.20,31.52 55.08,31.67 54.96,31.82 54.83,31.98 54.71,32.13 54.58,32.28 54.45,32.43 54.32,32.58 54.19,32.73 54.06,32.88 53.93,33.03 53.80,33.18 53.66,33.33 53.53,33.48 53.39,33.63 53.25,33.78 53.11,33.93 52.97,34.08 52.83,34.22 52.69,34.37 52.55,34.52 52.40,34.66 52.26,34.81 52.12,34.96 51.97,35.10 51.82,35.25 51.68,35.39 51.53,35.54 51.38,35.68 51.23,35.83 51.08,35.97 50.93,36.11 50.78,36.26 50.62,36.40 50.47,36.54 50.32,36.69 50.16,36.83 50.01,36.97 49.86,37.11 49.70,37.25 49.55,37.39 49.39,37.53 49.23,37.67 49.08,37.82 48.92,37.96 48.76,38.09 48.61,38.23 48.45,38.37 48.29,38.51 48.13,38.65 47.97,38.79 47.81,38.93 47.66,39.07 47.50,39.20 47.34,39.34 47.18,39.48 47.02,39.61 46.86,39.75 46.70,39.89 46.54,40.02 46.39,40.16 46.23,40.30 46.07,40.43 45.91,40.57 45.75,40.70 45.59,40.84 45.44,40.97 45.28,41.10 45.12,41.24 44.96,41.37 44.81,41.51 44.65,41.64 44.49,41.77 44.34,41.90 44.18,42.04 44.03,42.17 43.87,42.30 43.72,42.43 43.56,42.57 43.41,42.70 43.26,42.83 43.11,42.96 42.96,43.09 42.80,43.22 42.65,43.35 42.50,43.48 42.35,43.61 42.21,43.74 42.06,43.87 41.91,44.00 41.76,44.13 41.62,44.26 41.47,44.38 41.33,44.51 41.19,44.64 41.04,44.77 40.90,44.89 40.76,45.02 40.62,45.15 40.48,45.27 40.34,45.40 40.21,45.53 40.07,45.65 39.93,45.78 39.80,45.90 39.66,46.03 39.53,46.15 39.40,46.27 39.27,46.40 39.14,46.52 39.01,46.64 38.88,46.77 38.76,46.89 38.63,47.01 38.51,47.13 38.38,47.25 38.26,47.38 38.14,47.50 38.02,47.62 37.90,47.74 37.78,47.86 37.66,47.98 37.55,48.09 37.43,48.21 37.32,48.33 37.21,48.45 37.10,48.56 36.99,48.68 36.88,48.80 36.77,48.91 36.67,49.03 36.56,49.14 36.46,49.26 36.36,49.37 36.26,49.48 36.16,49.60 36.06,49.71 35.96,49.82 35.86,49.93 35.77,50.04 35.68,50.15 35.58,50.26 35.49,50.37 35.40,50.48 35.32,50.59 35.23,50.70 35.14,50.80 35.06,50.91 34.98,51.02 34.89,51.12 34.81,51.23 34.73,51.33 34.66,51.43 34.58,51.54 34.51,51.64 34.43,51.74 34.36,51.84 34.29,51.94 34.22,52.04 34.15,52.14 34.08,52.23 34.01,52.33 33.95,52.43 33.89,52.52 33.82,52.62 33.76,52.71 33.70,52.80 33.64,52.89 33.59,52.99 33.53,53.08 33.47,53.17 33.42,53.26 33.37,53.34 33.32,53.43 33.27,53.52 33.22,53.60 33.17,53.69 33.12,53.77 33.08,53.85 33.03,53.93 32.99,54.02 32.95,54.10 32.91,54.17 32.87,54.25 32.83,54.33 32.79,54.41 32.76,54.48 32.72,54.55 32.69,54.63 32.65,54.70 32.62,54.77 32.59,54.84 32.56,54.91 32.53,54.98 32.50,55.04 32.48,55.11 32.45,55.17 32.42,55.24 32.40,55.30 32.38,55.36 32.35,55.42 32.33,55.48 32.31,55.54 32.29,55.60 32.27,55.65 32.25,55.71 32.24,55.76 32.22,55.81 32.20,55.86 32.19,55.91 32.18,55.96 32.16,56.01 32.15,56.06 32.14,56.10 32.13,56.14 32.11,56.19 32.10,56.23 32.09,56.27 32.09,56.31 32.08,56.34 32.07,56.38 32.06,56.42 32.06,56.45 32.05,56.48 32.04,56.51 32.04,56.54 32.03,56.57 32.03,56.60 32.02,56.63 32.02,56.65 32.02,56.67 32.01,56.70 32.01,56.72 32.01,56.74 32.01,56.76 32.01,56.77 32.00,56.79 32.00,56.80 32.00,56.82 32.00,56.83 32.00,56.84 32.00,56.85 32.00,56.86 32.00,56.86 32.00,56.87 32.00,56.87 32.00,56.87 32.00,56.87 32.00,56.87 32.00,56.87 32.00,56.87 32.00,56.87 32.00,56.86 32.00,56.85 32.00,56.84 32.00,56.83 32.00,56.82 32.00,56.81 32.00,56.80 31.99,56.78 31.99,56.77 31.99,56.75 31.99,56.73 31.99,56.71 31.98,56.69 31.98,56.67 31.98,56.64 31.97,56.62 31.97,56.59 31.97,56.56 31.96,56.53 31.95,56.50 31.95,56.47 31.94,56.44 31.94,56.40 31.93,56.37 31.92,56.33 31.91,56.29 31.90,56.25 31.89,56.21 31.88,56.17 31.87,56.13 31.86,56.08 31.85,56.04 31.83,55.99 31.82,55.94 31.80,55.90 31.79,55.85 31.77,55.79 31.76,55.74 31.74,55.69 31.72,55.63 31.70,55.58 31.68,55.52 31.66,55.46 31.64,55.40 31.61,55.34 31.59,55.28 31.57,55.22 31.54,55.15 31.51,55.09 31.49,55.02 31.46,54.95 31.43,54.88 31.40,54.82 31.37,54.75 31.33,54.67 31.30,54.60 31.27,54.53 31.23,54.45 31.19,54.38 31.16,54.30 31.12,54.22 31.08,54.15 31.04,54.07 30.99,53.99 30.95,53.91 30.90,53.82 30.86,53.74 30.81,53.66 30.76,53.57 30.71,53.49 30.66,53.40 30.61,53.31 30.56,53.22 30.51,53.13 30.45,53.04 30.39,52.95 30.34,52.86 30.28,52.77 30.22,52.68 30.15,52.58 30.09,52.49 30.03,52.39 29.96,52.29 29.89,52.20 29.83,52.10 29.76,52.00 29.69,51.90 29.62,51.80 29.54,51.70 29.47,51.60 29.39,51.50 29.31,51.40 29.24,51.29 29.16,51.19 29.08,51.08 28.99,50.98 28.91,50.87 28.83,50.77 28.74,50.66 28.65,50.55 28.56,50.44 28.47,50.33 28.38,50.22 28.29,50.11 28.20,50.00 28.10,49.89 28.00,49.78 27.91,49.67 27.81,49.56 27.71,49.44 27.61,49.33 27.50,49.22 27.40,49.10 27.29,48.99 27.19,48.87 27.08,48.76 26.97,48.64 26.86,48.52 26.75,48.40 26.64,48.29 26.52,48.17 26.41,48.05 26.29,47.93 26.18,47.81 26.06,47.69 25.94,47.57 25.82,47.45 25.70,47.33 25.57,47.21 25.45,47.09 25.32,46.97 25.20,46.85 25.07,46.72 24.94,46.60 24.81,46.48 24.68,46.35 24.55,46.23 24.42,46.11 24.29,45.98 24.15,45.86 24.02,45.73 23.88,45.61 23.74,45.48 23.61,45.35 23.47,45.23 23.33,45.10 23.19,44.97 23.05,44.85 22.90,44.72 22.76,44.59 22.62,44.47 22.47,44.34 22.33,44.21 22.18,44.08 22.04,43.95 21.89,43.82 21.74,43.69 21.59,43.56 21.44,43.43 21.29,43.30 21.14,43.17 20.99,43.04 20.84,42.91 20.69,42.78 20.53,42.65 20.38,42.52 20.23,42.39 20.07,42.25 19.92,42.12 19.76,41.99 19.61,41.86 19.45,41.72 19.29,41.59 19.14,41.46 18.98,41.32 18.82,41.19 18.66,41.06 18.51,40.92 18.35,40.79 18.19,40.65 18.03,40.52 17.87,40.38 17.72,40.25 17.56,40.11 17.40,39.97 17.24,39.84 17.08,39.70 16.92,39.56 16.76,39.43 16.60,39.29 16.45,39.15 16.29,39.02 16.13,38.88 15.97,38.74 15.81,38.60 15.65,38.46 15.50,38.32 15.34,38.18 15.18,38.04 15.02,37.90 14.87,37.76 14.71,37.62 14.55,37.48 14.40,37.34 14.24,37.20 14.09,37.06 13.93,36.92 13.78,36.78 13.63,36.63 13.47,36.49 13.32,36.35 13.17,36.21 13.02,36.06 12.87,35.92 12.72,35.77 12.57,35.63 12.42,35.49 12.27,35.34 12.12,35.19 11.98,35.05 11.83,34.90 11.69,34.76 11.54,34.61 11.40,34.46 11.26,34.32 11.12,34.17 10.98,34.02 10.84,33.87 10.70,33.73 10.56,33.58 10.42,33.43 10.29,33.28 10.16,33.13 10.02,32.98 9.89,32.83 9.76,32.68 9.63,32.53 9.50,32.38 9.37,32.22 9.25,32.07 9.12,31.92 9.00,31.77 8.88,31.61 8.76,31.46 8.64,31.31 8.52,31.15 8.40,31.00 8.29,30.85 8.17,30.69 8.06,30.54 7.95,30.38 7.84,30.22 7.73,30.07 7.62,29.91 7.52,29.76 7.41,29.60 7.31,29.44 7.21,29.28 7.11,29.13 7.01,28.97 6.92,28.81 6.82,28.65 6.73,28.49 6.64,28.33 6.55,28.17 6.46,28.01 6.38,27.85 6.29,27.69 6.21,27.53 6.13,27.37 6.05,27.21 5.98,27.05 5.90,26.89 5.83,26.73 5.76,26.57 5.69,26.40 5.62,26.24 5.55,26.08 5.49,25.92 5.43,25.75 5.37,25.59 5.31,25.43 5.25,25.26 5.20,25.10 5.14,24.94 5.09,24.77 5.04,24.61 5.00,24.45 4.95,24.28 4.91,24.12 4.87,23.95 4.83,23.79 4.79,23.62 4.76,23.46 4.73,23.30 4.70,23.13 4.67,22.97 4.64,22.80 4.62,22.64 4.59,22.47 4.57,22.31 4.55,22.14 4.54,21.98 4.52,21.82 4.51,21.65 4.50,21.49 4.49,21.32 4.49,21.16 4.48,21.00 4.48,20.83 4.48,20.67 4.48,20.51 4.49,20.34 4.49,20.18 4.50,20.02 4.51,19.85 4.52,19.69 4.54,19.53 4.55,19.37 4.57,19.21 4.59,19.05 4.62,18.89 4.64,18.73 4.67,18.57 4.70,18.41 4.73,18.25 4.76,18.09 4.80,17.93 4.83,17.77 4.87,17.62 4.91,17.46 4.95,17.30 5.00,17.15 5.05,16.99 5.09,16.84 5.15,16.68 5.20,16.53 5.25,16.38 5.31,16.22 5.37,16.07 5.43,15.92 5.49,15.77 5.55,15.62 5.62,15.47 5.69,15.32 5.76,15.18 5.83,15.03 5.90,14.88 5.98,14.74 6.06,14.60 6.13,14.45 6.21,14.31 6.30,14.17 6.38,14.03 6.47,13.89 6.55,13.75 6.64,13.61 6.73,13.47 6.83,13.34 6.92,13.20 7.02,13.07 7.12,12.94 7.21,12.81 7.32,12.67 7.42,12.55 7.52,12.42 7.63,12.29 7.73,12.16 7.84,12.04 7.95,11.92 8.06,11.79 8.18,11.67 8.29,11.55 8.41,11.43 8.52,11.32 8.64,11.20 8.76,11.09 8.88,10.97 9.00,10.86 9.13,10.75 9.25,10.64 9.38,10.53 9.51,10.43 9.64,10.32 9.77,10.22 9.90,10.12 10.03,10.02 10.16,9.92 10.30,9.82 10.43,9.72 10.57,9.63 10.70,9.54 10.84,9.45 10.98,9.36 11.12,9.27 11.26,9.18 11.41,9.10 11.55,9.01 11.69,8.93 11.84,8.85 11.98,8.77 12.13,8.70 12.28,8.62 12.43,8.55 12.57,8.48 12.72,8.41 12.87,8.34 13.02,8.28 13.18,8.21 13.33,8.15 13.48,8.09 13.63,8.03 13.79,7.97 13.94,7.92 14.09,7.86 14.25,7.81 14.40,7.76 14.56,7.72 14.72,7.67 14.87,7.62 15.03,7.58 15.19,7.54 15.34,7.50 15.50,7.47 15.66,7.43 15.82,7.40 15.98,7.37 16.13,7.34 16.29,7.31 16.45,7.29 16.61,7.26 16.77,7.24 16.93,7.22 17.09,7.20 17.25,7.19 17.41,7.17 17.56,7.16 17.72,7.15 17.88,7.14 18.04,7.13 18.20,7.13 18.36,7.13 18.51,7.13 18.67,7.13 18.83,7.13 18.99,7.13 19.14,7.14 19.30,7.15 19.46,7.16 19.61,7.17 19.77,7.18 19.92,7.20 20.08,7.22 20.23,7.24 20.39,7.26 20.54,7.28 20.69,7.31 20.84,7.33 21.00,7.36 21.15,7.39 21.30,7.42 21.45,7.45 21.60,7.49 21.75,7.53 21.89,7.56 22.04,7.60 22.19,7.65 22.33,7.69 22.48,7.73 22.62,7.78 22.77,7.83 22.91,7.88 23.05,7.93 23.19,7.98 23.33,8.04 23.47,8.09 23.61,8.15 23.75,8.21 23.89,8.27 24.02,8.33 24.16,8.40 24.29,8.46 24.43,8.53 24.56,8.59 24.69,8.66 24.82,8.73 24.95,8.80 25.08,8.88 25.20,8.95 25.33,9.02 25.45,9.10 25.58,9.18 25.70,9.26 25.82,9.34 25.94,9.42 26.06,9.50 26.18,9.58 26.30,9.66 26.41,9.75 26.53,9.84 26.64,9.92 26.76,10.01 26.87,10.10 26.98,10.19 27.09,10.28 27.19,10.37 27.30,10.46 27.40,10.55 27.51,10.65 27.61,10.74 27.71,10.84 27.81,10.93 27.91,11.03 28.01,11.13 28.10,11.22 28.20,11.32 28.29,11.42 28.39,11.52 28.48,11.62 28.57,11.72 28.66,11.82 28.74,11.92 28.83,12.02 28.91,12.12 29.00,12.22 29.08,12.32 29.16,12.43 29.24,12.53 29.32,12.63 29.40,12.73 29.47,12.84 29.55,12.94 29.62,13.04 29.69,13.14 29.76,13.25 29.83,13.35 29.90,13.45 29.96,13.55 30.03,13.66 30.09,13.76 30.16,13.86 30.22,13.96 30.28,14.06 30.34,14.16 30.40,14.26 30.45,14.36 30.51,14.46 30.56,14.56 30.61,14.66 30.67,14.76 30.72,14.86 30.77,14.96 30.81,15.05 30.86,15.15 30.91,15.25 30.95,15.34 30.99,15.44 31.04,15.53 31.08,15.62 31.12,15.71 31.16,15.81 31.20,15.90 31.23,15.99 31.27,16.08 31.30,16.16 31.34,16.25 31.37,16.34 31.40,16.42 31.43,16.51 31.46,16.59 31.49,16.67 31.52,16.75 31.54,16.83 31.57,16.91 31.59,16.99 31.62,17.07 31.64,17.14 31.66,17.22 31.68,17.29 31.70,17.36 31.72,17.43 31.74,17.50 31.76,17.57 31.77,17.64 31.79,17.70 31.81,17.77 31.82,17.83 31.83,17.89 31.85,17.95 31.86,18.01 31.87,18.06 31.88,18.12 31.89,18.17 31.90,18.23 31.91,18.28 31.92,18.33 31.93,18.37 31.94,18.42 31.94,18.46 31.95,18.51 31.95,18.55 31.96,18.59 31.97,18.63 31.97,18.66 31.97,18.70 31.98,18.73 31.98,18.76 31.98,18.79 31.99,18.82 31.99,18.85 31.99,18.87 31.99,18.89 31.99,18.91 32.00,18.93 32.00,18.95 32.00,18.97 32.00,18.98 32.00,19.00 32.00,19.01 32.00,19.02 32.00,19.02 32.00,19.03 32.00,19.03 32.00,19.03" fill="#DB94A8"/></svg>