<?xml version="1.0" encoding="UTF-8"?>
<svg id="Layer_1" data-name="Layer 1" xmlns="http://www.w3.org/2000/svg" viewBox="0 0 512 512">
  <defs>
    <style>
      .cls-1 {
        fill: #be966a;
      }

      .cls-2 {
        fill: #bd9769;
      }
    </style>
  </defs>
  <path class="cls-1" d="M378.85,159.88c-1.56-73.17-55.47-132.16-121.51-132.16s-121.54,60.75-121.54,135.43v344.8h9.4V163.15c0-2.57.08-5.11.21-7.64,3.86-11.78,12.13-22.1,21.42-30.17,14.14-12.3,32.37-21.02,51.05-23.27,7.02-.85,14.1-.7,20.97.66-.33.14-.65.26-.98.41-12.07,5.43-21.99,15.22-29.75,25.75-7.47,10.13-14.62,22.98-14.78,35.91v280.53c0,3.78-.26,7.68,0,11.46.01.17,0,.35,0,.53,0,1.47,1.24,2.71,2.71,2.71h119.29c.8,0,1.4-.29,1.83-.73.03-.03.06-.06.09-.09.02-.02.03-.03.05-.05.44-.43.74-1.04.74-1.85V173.68c0-3.84.28-7.8,0-11.64-.01-.17,0-.35,0-.52-.16-11.52-6.46-22.71-13.19-31.68-8.16-10.88-18.71-20.69-31.23-26.29-.2-.09-.41-.17-.61-.26,15.6-3.81,32.27-1,47.03,5.09,16.97,7,33.03,18.83,42.93,34.49,2.69,4.25,4.87,8.8,6.33,13.56.1,2.23.16,4.47.16,6.72v341.53h9.4V159.88h-.04ZM297.3,128.96c7.44,8.81,15.18,20.6,15.34,32.55v283.62c0,3.12-.18,6.31-.1,9.45h-113.77V176.77c0-3.78.26-7.68,0-11.46-.01-.17,0-.35,0-.53.13-10.03,5.27-19.92,10.58-28.15,6.59-10.22,15.24-19.65,25.73-25.93,10.05-6.01,21-7.75,32.18-3.9,11.87,4.08,22.03,12.69,30.03,22.16ZM351.82,121.8c-15.12-13.27-34.31-22.52-54.33-25.06-10.75-1.36-21.79-.59-32,3.16-.37.14-.68.33-.93.56-5.22-1.2-10.49-1.43-15.73-.62-18.52-6.76-39.25-3.71-57.06,3.79-17.63,7.42-34.13,19.66-44.58,35.9,9.86-58.24,55.5-102.42,110.16-102.42s100.53,44.4,110.23,102.86c-4.3-6.81-9.79-12.94-15.77-18.18Z"/>
  <g id="tBoRYO.tif">
    <path class="cls-2" d="M286.64,24.3c.14,15.65-16.66,29.29-29.43,37.26-9.57-6.04-19.05-13.31-25.03-23.13-2.36-3.97-3.92-8.16-4.11-12.73-.42-10.02,7.49-17.8,17.5-17.19,4.61.28,8.71,2.32,12.09,5.62,3.28-3.21,7.25-5.25,11.77-5.6,9.4-.74,17.13,6.34,17.21,15.78Z"/>
  </g>
</svg>